# Blender 4.5.1 LTS
# www.blender.org
mtllib model1.mtl
o Cube
v 1.000000 1.000000 -1.000000
v 1.000000 -1.000000 -1.000000
v 1.000000 1.000000 1.000000
v 1.000000 -1.000000 1.000000
v -1.000000 1.000000 -1.000000
v -1.000000 -1.000000 -1.000000
v -1.000000 1.000000 1.000000
v -1.000000 -1.000000 1.000000
v 1.000000 2.000000 1.000000
v -1.000000 2.000000 1.000000
v 0.500000 2.500000 -1.000000
v -0.500000 2.500000 -1.000000
v -2.652187 1.000000 1.000000
v -2.069419 1.100000 -2.183371
v 0.901146 1.100000 -2.637088
v 0.500000 3.500000 -1.000000
v -0.500000 3.500000 -1.000000
v -0.500000 2.500000 -0.800000
v 0.500000 2.500000 -0.800000
v -0.500000 3.500000 -0.800000
v 0.500000 3.500000 -0.800000
v 1.000000 3.800000 1.000000
v 0.800000 4.000000 0.800000
v 0.973205 3.900000 0.973205
v 0.900000 3.973205 0.900000
v -0.800000 4.000000 0.800000
v -1.000000 3.800000 1.000000
v -0.900000 3.973205 0.900000
v -0.973205 3.900000 0.973205
v -0.800000 4.000000 -0.800000
v -0.900000 3.973205 -0.900000
v -0.973205 3.900000 -0.973205
v 0.800000 4.000000 -0.800000
v 0.973205 3.900000 -0.973205
v 0.900000 3.973205 -0.900000
v -1.000000 2.000000 -0.800000
v -0.800000 2.200000 -1.000000
v -0.800000 2.000000 -1.000000
v -1.141421 2.000000 -1.141421
v -0.941421 2.058579 -0.941421
v 0.800000 2.200000 -1.000000
v 1.000000 2.000000 -0.800000
v 1.000000 1.800000 -1.000000
v 1.000000 2.000000 -1.200000
v 0.800000 2.000000 -1.000000
v 0.941421 2.058579 -0.941421
v -0.800000 3.680000 -1.000000
v -1.000000 3.800000 -0.800000
v -0.973218 3.899953 -0.973218
v -0.800000 3.800000 -1.000000
v -0.941421 3.764853 -0.941421
v 1.000000 3.800000 -0.800000
v 0.800000 3.680000 -1.000000
v 0.800000 3.800000 -1.000000
v 0.973218 3.899953 -0.973218
v 0.941421 3.764853 -0.941421
v -2.449867 2.000000 1.000000
v -2.652187 1.800000 1.000000
v -2.551027 1.973205 1.000000
v -2.625081 1.900000 1.000000
v -2.069419 1.758579 -2.183371
v -1.992760 2.000000 -1.992760
v -1.929619 1.900000 -2.204724
v -2.144758 1.900000 -2.144758
v -2.080516 1.973205 -2.080516
v 0.688824 1.900000 -2.604658
v 1.000000 2.000000 -2.352187
v 0.901146 1.685215 -2.637088
v 0.849360 2.000000 -2.584420
v 0.796643 1.867028 -2.621126
v 0.916317 1.964841 -2.604097
v 1.000000 1.955487 -2.499434
v 0.955755 2.000000 -2.493042
v 0.965097 1.964842 -2.562202
v 0.868552 1.794285 -2.632109
v 1.000000 1.847247 -2.607673
v 0.965217 1.915188 -2.611687
v -2.168272 1.000000 -2.168272
v 1.000000 1.000000 -2.652187
v -1.970565 2.000000 -2.198470
v -2.168272 1.800000 -2.168272
v 0.848999 1.955487 -2.629123
v 0.703439 2.000000 -2.606891
v 1.000000 1.700000 -2.652187
v 0.955997 1.847247 -2.645465
v -2.054320 1.100000 -2.084517
v 0.916245 1.100000 -2.538234
v -1.914520 1.900000 -2.105870
v -2.054320 1.758579 -2.084517
v 0.811742 1.867028 -2.522273
v 0.703923 1.900000 -2.505805
v 0.916245 1.685215 -2.538234
v 0.883651 1.794285 -2.533256
v 1.000000 0.000000 -1.000000
v -1.000000 0.000000 1.000000
v 1.000000 0.000000 1.000000
v -1.000000 0.000000 -1.000000
v 1.000000 -0.500000 -1.000000
v 1.000000 -0.500000 1.000000
v -1.000000 -0.500000 -1.000000
v -1.000000 -0.500000 1.000000
v -1.642122 -0.500000 1.642122
v -1.642122 0.000000 1.642122
v -1.642122 0.000000 -1.642122
v 1.642122 0.000000 -1.642122
v 1.642122 0.000000 1.642122
v 1.642122 -0.500000 -1.642122
v 1.642122 -0.500000 1.642122
v -1.642122 -0.500000 -1.642122
v -1.000000 3.383202 -0.290401
v -1.000000 3.378856 0.397964
v -1.000000 2.966843 0.140063
v -1.000000 2.997509 0.419648
v -1.000000 2.520216 -0.277746
v -1.000000 2.884918 -0.037298
v -1.000000 2.944796 -0.245896
v -0.900000 3.383202 -0.290401
v -0.900000 3.378856 0.397964
v -0.900000 2.966843 0.140063
v -0.900000 2.997509 0.419648
v -0.900000 2.520216 -0.277746
v -0.900000 2.884918 -0.037298
v -0.900000 2.944796 -0.245896
vn -0.0000 -0.0000 1.0000
vn -1.0000 -0.0000 -0.0000
vn -0.0000 -1.0000 -0.0000
vn 1.0000 -0.0000 -0.0000
vn -0.0000 -0.0000 -1.0000
vn -0.0000 1.0000 -0.0000
vn -0.0000 0.9659 0.2588
vn -0.0000 0.7071 0.7071
vn -0.0000 0.2588 0.9659
vn 0.2588 0.9659 -0.0000
vn 0.7071 0.7071 -0.0000
vn -0.2588 0.9659 -0.0000
vn -0.7071 0.7071 -0.0000
vn -0.0000 0.9659 -0.2588
vn -0.0000 0.7071 -0.7071
vn -0.2534 0.8652 -0.4326
vn 0.8096 0.4965 -0.3131
vn -0.5967 -0.2229 -0.7709
vn 0.5967 -0.2229 -0.7709
vn 0.3827 -0.0000 -0.9239
vn 0.9239 -0.0000 -0.3827
vn -0.3827 -0.0000 -0.9239
vn -0.9239 -0.0000 -0.3827
vn -0.0000 0.2588 -0.9659
vn -0.9659 0.2588 -0.0000
vn 0.9659 0.2588 -0.0000
vn -0.4348 0.3018 -0.8484
vn -0.5446 0.7699 -0.3327
vn -0.2656 0.9637 -0.0287
vn -0.2559 0.9659 -0.0391
vn -0.6990 0.7071 -0.1068
vn -0.9549 0.2588 -0.1458
vn -0.9885 -0.0000 -0.1510
vn 0.1252 0.7025 -0.7006
vn 0.3354 0.8573 -0.3905
vn 0.6736 0.7025 -0.2296
vn 0.8254 0.3993 -0.3991
vn 0.6324 0.2408 -0.7363
vn 0.2699 0.3993 -0.8762
vn 0.5193 0.6039 -0.6047
vn -0.9885 -0.0000 0.1510
vn -0.1510 -0.0000 -0.9885
vn -0.9462 -0.2894 0.1445
vn 0.9885 -0.0000 -0.1510
vn -0.6990 -0.7071 0.1068
vn -0.2861 -0.9572 0.0437
vn 0.6990 -0.7071 -0.1068
vn -0.0000 0.5306 -0.8476
vn -0.0000 0.1010 0.9949
vn -0.0000 -0.5504 0.8349
vn -0.0000 -0.9940 0.1090
vn -0.0000 -1.0000 -0.0063
vn -0.0000 0.9612 0.2759
vn -0.0000 0.8252 -0.5648
vt 0.625000 1.000000
vt 0.625000 0.750000
vt 0.500000 0.750000
vt 0.500000 1.000000
vt 0.500000 0.000000
vt 0.625000 0.000000
vt 0.625000 0.250000
vt 0.500000 0.250000
vt 0.125000 0.500000
vt 0.375000 0.500000
vt 0.375000 0.750000
vt 0.125000 0.750000
vt 0.500000 0.500000
vt 0.625000 0.500000
vt 0.687500 0.500000
vt 0.812500 0.500000
vt 0.812500 0.500000
vt 0.650000 0.725000
vt 0.850000 0.725000
vt 0.862500 0.737500
vt 0.637500 0.737500
vt 0.873903 0.747748
vt 0.625816 0.749184
vt 0.625000 0.996651
vt 0.625000 0.750000
vt 0.650000 0.525000
vt 0.637500 0.512500
vt 0.626675 0.501675
vt 0.850000 0.525000
vt 0.862500 0.512500
vt 0.873325 0.501675
vt 0.875000 0.525000
vt 0.875000 0.500606
vt 0.850842 0.500000
vt 0.850000 0.500000
vt 0.875000 0.500000
vt 0.650000 0.500000
vt 0.625812 0.500000
vt 0.625000 0.524712
vt 0.650000 0.500000
vt 0.850000 0.500000
vt 0.874614 0.500000
vt 0.875000 0.524809
vt 0.873326 0.501674
vt 0.625000 0.525000
vt 0.625000 0.500386
vt 0.649334 0.500000
vt 0.650000 0.500000
vt 0.626674 0.501674
vt 0.875000 0.750000
vt 0.875000 0.750000
vt 0.875000 0.677422
vt 0.875000 0.590244
vt 0.875000 0.620284
vt 0.875000 0.594193
vt 0.875000 0.588593
vt 0.625000 0.265557
vt 0.625000 0.244267
vt 0.625000 0.238534
vt 0.875000 0.500000
vt 0.875000 0.505733
vt 0.875000 0.748809
vt 0.625000 0.001191
vt 0.625000 0.248464
vt 0.625000 0.000319
vt 0.625000 1.000000
vt 0.637642 0.489239
vt 0.637448 0.500000
vt 0.629264 0.497244
vt 0.625025 0.488108
vt 0.629035 0.500000
vt 0.625277 0.500000
vt 0.625000 0.500000
vt 0.625000 0.500000
vt 0.625000 0.500000
vt 0.625000 0.496527
vt 0.625817 0.493016
vt 0.625255 0.492455
vt 0.859399 0.500000
vt 0.625080 0.257879
vt 0.625223 0.269023
vt 0.625090 0.257881
vt 0.627976 0.486928
vt 0.632822 0.483265
vt 0.626155 0.490782
vt 0.437500 1.000000
vt 0.437500 0.750000
vt 0.437500 0.500000
vt 0.375000 1.000000
vt 0.375000 0.000000
vt 0.437500 0.000000
vt 0.437500 0.250000
vt 0.375000 0.250000
vt 0.875000 0.674698
vt 0.875000 0.642459
s 0
usemtl Material
f 7/1/1 3/2/1 9/2/1 10/1/1
f 96/3/1 3/2/1 7/1/1 95/4/1
f 95/5/2 7/6/2 5/7/2 97/8/2
f 6/9/3 2/10/3 4/11/3 8/12/3
f 94/13/4 1/14/4 3/2/4 96/3/4
f 97/8/5 5/7/5 1/14/5 94/13/5
f 16/15/2 11/15/2 19/15/2 21/15/2
f 5/7/3 7/6/3 13/6/3 78/7/3
f 1/14/3 5/7/3 78/7/3 79/14/3
f 19/15/5 18/16/5 20/17/5 21/15/5
f 17/17/3 16/15/3 21/15/3 20/17/3
f 12/16/4 17/17/4 20/17/4 18/16/4
f 11/15/6 12/16/6 18/16/6 19/15/6
f 23/18/7 26/19/7 28/20/7 25/21/7
f 25/21/8 28/20/8 29/22/8 24/23/8
f 24/23/9 29/24/9 27/1/9 22/25/9
f 33/26/10 23/18/10 25/21/10 35/27/10
f 35/27/11 25/21/11 24/23/11 34/28/11
f 26/19/12 30/29/12 31/30/12 28/20/12
f 28/20/13 31/30/13 32/31/13 29/22/13
f 30/29/14 33/26/14 35/27/14 31/30/14
f 31/30/15 35/27/15 34/28/15 32/31/15
f 10/1/1 9/2/1 22/25/1 27/1/1
f 33/26/6 30/29/6 26/19/6 23/18/6
f 36/32/16 40/33/16 37/34/16 38/35/16 39/36/16
f 41/37/17 46/38/17 42/39/17 43/14/17 44/14/17 45/40/17
f 47/41/18 51/42/18 48/43/18 49/44/18 50/41/18
f 52/45/19 56/46/19 53/47/19 54/48/19 55/49/19
f 41/37/20 53/47/20 56/46/20 46/38/20
f 46/38/21 56/46/21 52/45/21 42/39/21
f 47/41/22 37/34/22 40/33/22 51/42/22
f 51/42/23 40/33/23 36/32/23 48/43/23
f 36/32/2 10/50/2 27/51/2 113/52/2 114/53/2 115/54/2 116/55/2 110/56/2 48/43/2
f 12/16/5 11/15/5 41/37/5 45/40/5 38/35/5 37/34/5
f 17/17/5 12/16/5 37/34/5 47/41/5
f 9/2/4 42/39/4 52/45/4 22/25/4
f 3/2/4 1/14/4 43/14/4 42/39/4 9/2/4
f 11/15/5 16/15/5 53/47/5 41/37/5
f 32/31/24 34/28/24 55/49/24 54/48/24 50/41/24 49/44/24
f 29/22/25 32/31/25 49/44/25 48/43/25 27/51/25
f 16/15/5 17/17/5 47/41/5 50/41/5 54/48/5 53/47/5
f 34/28/26 24/23/26 22/25/26 52/45/26 55/49/26
f 81/7/27 64/7/27 80/57/27
f 64/7/28 65/58/28 80/7/28
f 65/58/29 62/59/29 80/7/29
f 57/50/30 62/60/30 65/61/30 59/62/30
f 59/63/31 65/58/31 64/64/31 60/65/31
f 60/65/32 64/64/32 81/7/32 58/6/32
f 10/50/6 36/32/6 39/36/6 62/60/6 57/50/6
f 78/7/33 13/6/33 58/6/33 81/7/33
f 7/1/1 10/1/1 57/1/1 59/66/1 60/1/1 58/1/1 13/1/1
f 83/67/34 69/68/34 71/69/34 82/70/34
f 69/68/35 73/71/35 74/72/35 71/69/35
f 67/14/36 72/73/36 74/72/36 73/71/36
f 72/73/37 76/74/37 77/75/37 74/72/37
f 84/14/38 85/76/38 77/75/38 76/74/38
f 85/76/39 82/70/39 71/69/39 77/75/39
f 71/69/40 74/72/40 77/75/40
f 68/77/41 15/78/41 87/78/41 92/77/41
f 44/14/4 43/14/4 1/14/4 79/14/4 84/14/4 76/74/4 72/73/4 67/14/4
f 39/36/6 38/35/6 45/40/6 44/14/6 67/14/6 73/71/6 69/68/6 83/67/6 80/79/6 62/60/6
f 14/80/42 15/78/42 79/14/42 78/7/42
f 63/81/42 61/82/42 81/7/42 80/57/42
f 61/82/42 14/80/42 78/7/42 81/7/42
f 70/83/42 66/84/42 83/67/42 82/70/42
f 68/77/42 75/85/42 85/76/42 84/14/42
f 75/85/42 70/83/42 82/70/42 85/76/42
f 15/78/42 68/77/42 84/14/42 79/14/42
f 66/84/42 63/81/42 80/57/42 83/67/42
f 87/78/42 86/80/42 89/82/42 88/81/42 91/84/42 90/83/42 93/85/42 92/77/42
f 75/85/43 68/77/43 92/77/43 93/85/43
f 14/80/44 61/82/44 89/82/44 86/80/44
f 15/78/6 14/80/6 86/80/6 87/78/6
f 63/81/3 66/84/3 91/84/3 88/81/3
f 70/83/45 75/85/45 93/85/45 90/83/45
f 66/84/46 70/83/46 90/83/46 91/84/46
f 61/82/47 63/81/47 88/81/47 89/82/47
f 101/86/3 99/87/3 108/87/3 102/86/3
f 99/87/3 98/88/3 107/88/3 108/87/3
f 94/13/6 96/3/6 106/3/6 105/13/6
f 96/3/6 95/4/6 103/4/6 106/3/6
f 4/11/1 99/87/1 101/86/1 8/89/1
f 8/90/2 101/91/2 100/92/2 6/93/2
f 2/10/4 98/88/4 99/87/4 4/11/4
f 6/93/5 100/92/5 98/88/5 2/10/5
f 109/92/5 104/8/5 105/13/5 107/88/5
f 107/88/4 105/13/4 106/3/4 108/87/4
f 102/91/2 103/5/2 104/8/2 109/92/2
f 108/87/1 106/3/1 103/4/1 102/86/1
f 95/5/6 97/8/6 104/8/6 103/5/6
f 98/88/3 100/92/3 109/92/3 107/88/3
f 97/8/6 94/13/6 105/13/6 104/8/6
f 100/92/3 101/91/3 102/91/3 109/92/3
f 48/43/2 110/56/2 111/94/2 112/95/2 113/52/2 27/51/2
f 112/95/48 111/94/48 118/94/48 119/95/48
f 119/95/2 118/94/2 117/56/2 123/55/2 122/54/2 121/53/2 120/52/2
f 110/56/49 116/55/49 123/55/49 117/56/49
f 115/54/50 114/53/50 121/53/50 122/54/50
f 113/52/51 112/95/51 119/95/51 120/52/51
f 111/94/52 110/56/52 117/56/52 118/94/52
f 116/55/53 115/54/53 122/54/53 123/55/53
f 114/53/54 113/52/54 120/52/54 121/53/54
